<mxfile host="app.diagrams.net" modified="2022-07-14T10:27:51.520Z" agent="5.0 (Macintosh; Intel Mac OS X 10_15_7) AppleWebKit/537.36 (KHTML, like Gecko) Chrome/103.0.0.0 Safari/537.36" etag="EIxjK2OcOyY8ZdbJpzlN" version="20.0.4" type="github">
  <diagram id="yRowlVD9RewXAcKykzXw" name="第 1 页">
    <mxGraphModel dx="895" dy="643" grid="1" gridSize="10" guides="1" tooltips="1" connect="1" arrows="1" fold="1" page="1" pageScale="1" pageWidth="827" pageHeight="1169" background="#ffffff" math="0" shadow="0">
      <root>
        <mxCell id="0" />
        <mxCell id="1" parent="0" />
        <mxCell id="GSWelJKuNMoxfmWTR8Kb-1" value="" style="rounded=0;whiteSpace=wrap;html=1;strokeWidth=2;dashed=1;gradientColor=none;fillColor=none;" vertex="1" parent="1">
          <mxGeometry x="140" y="186" width="420" height="60" as="geometry" />
        </mxCell>
        <mxCell id="GSWelJKuNMoxfmWTR8Kb-3" value="&lt;font style=&quot;font-size: 14px;&quot;&gt;ready 1&lt;/font&gt;" style="ellipse;whiteSpace=wrap;html=1;aspect=fixed;fillColor=#60a917;fontColor=#ffffff;strokeColor=#2D7600;" vertex="1" parent="1">
          <mxGeometry x="170" y="190" width="50" height="50" as="geometry" />
        </mxCell>
        <mxCell id="GSWelJKuNMoxfmWTR8Kb-4" value="&lt;font style=&quot;font-size: 14px;&quot;&gt;ready 2&lt;/font&gt;" style="ellipse;whiteSpace=wrap;html=1;aspect=fixed;fillColor=#60a917;fontColor=#ffffff;strokeColor=#2D7600;" vertex="1" parent="1">
          <mxGeometry x="250" y="190" width="50" height="50" as="geometry" />
        </mxCell>
        <mxCell id="GSWelJKuNMoxfmWTR8Kb-5" value="&lt;font style=&quot;font-size: 14px;&quot;&gt;ready 3&lt;/font&gt;" style="ellipse;whiteSpace=wrap;html=1;aspect=fixed;fillColor=#60a917;fontColor=#ffffff;strokeColor=#2D7600;" vertex="1" parent="1">
          <mxGeometry x="338" y="190" width="50" height="50" as="geometry" />
        </mxCell>
        <mxCell id="GSWelJKuNMoxfmWTR8Kb-6" value="&lt;font style=&quot;font-size: 14px;&quot;&gt;ready 4&lt;/font&gt;" style="ellipse;whiteSpace=wrap;html=1;aspect=fixed;fillColor=#60a917;fontColor=#ffffff;strokeColor=#2D7600;" vertex="1" parent="1">
          <mxGeometry x="414" y="190" width="50" height="50" as="geometry" />
        </mxCell>
        <mxCell id="GSWelJKuNMoxfmWTR8Kb-7" value="&lt;font style=&quot;font-size: 14px;&quot;&gt;ready 5&lt;/font&gt;" style="ellipse;whiteSpace=wrap;html=1;aspect=fixed;fillColor=#60a917;fontColor=#ffffff;strokeColor=#2D7600;" vertex="1" parent="1">
          <mxGeometry x="490" y="190" width="50" height="50" as="geometry" />
        </mxCell>
        <mxCell id="GSWelJKuNMoxfmWTR8Kb-17" style="edgeStyle=orthogonalEdgeStyle;rounded=0;orthogonalLoop=1;jettySize=auto;html=1;fontSize=14;strokeWidth=2;" edge="1" parent="1" source="GSWelJKuNMoxfmWTR8Kb-8" target="GSWelJKuNMoxfmWTR8Kb-16">
          <mxGeometry relative="1" as="geometry" />
        </mxCell>
        <mxCell id="GSWelJKuNMoxfmWTR8Kb-8" value="" style="rounded=0;whiteSpace=wrap;html=1;strokeWidth=2;dashed=1;gradientColor=none;fillColor=none;" vertex="1" parent="1">
          <mxGeometry x="139" y="470" width="420" height="60" as="geometry" />
        </mxCell>
        <mxCell id="GSWelJKuNMoxfmWTR8Kb-9" value="&lt;font style=&quot;font-size: 14px;&quot;&gt;Runing&lt;br&gt;1&lt;br&gt;&lt;/font&gt;" style="ellipse;whiteSpace=wrap;html=1;aspect=fixed;fillColor=#6a00ff;fontColor=#ffffff;strokeColor=#3700CC;" vertex="1" parent="1">
          <mxGeometry x="203" y="475" width="50" height="50" as="geometry" />
        </mxCell>
        <mxCell id="GSWelJKuNMoxfmWTR8Kb-11" value="&lt;span style=&quot;font-size: 14px;&quot;&gt;Runing&lt;br&gt;3&lt;br&gt;&lt;/span&gt;" style="ellipse;whiteSpace=wrap;html=1;aspect=fixed;fillColor=#6a00ff;fontColor=#ffffff;strokeColor=#3700CC;" vertex="1" parent="1">
          <mxGeometry x="371" y="475" width="50" height="50" as="geometry" />
        </mxCell>
        <mxCell id="GSWelJKuNMoxfmWTR8Kb-12" value="&lt;span style=&quot;font-size: 14px;&quot;&gt;Runing&lt;br&gt;4&lt;br&gt;&lt;/span&gt;" style="ellipse;whiteSpace=wrap;html=1;aspect=fixed;fillColor=#6a00ff;fontColor=#ffffff;strokeColor=#3700CC;" vertex="1" parent="1">
          <mxGeometry x="447" y="475" width="50" height="50" as="geometry" />
        </mxCell>
        <mxCell id="GSWelJKuNMoxfmWTR8Kb-14" value="&lt;font style=&quot;font-size: 14px;&quot;&gt;Runing&lt;br&gt;2&lt;br&gt;&lt;/font&gt;" style="ellipse;whiteSpace=wrap;html=1;aspect=fixed;fillColor=#6a00ff;fontColor=#ffffff;strokeColor=#3700CC;" vertex="1" parent="1">
          <mxGeometry x="283" y="475" width="50" height="50" as="geometry" />
        </mxCell>
        <mxCell id="GSWelJKuNMoxfmWTR8Kb-32" style="edgeStyle=orthogonalEdgeStyle;rounded=0;orthogonalLoop=1;jettySize=auto;html=1;exitX=0.5;exitY=1;exitDx=0;exitDy=0;fontSize=18;fontColor=#FFFFFF;strokeWidth=2;" edge="1" parent="1" source="GSWelJKuNMoxfmWTR8Kb-18">
          <mxGeometry relative="1" as="geometry">
            <mxPoint x="349" y="430" as="targetPoint" />
          </mxGeometry>
        </mxCell>
        <mxCell id="GSWelJKuNMoxfmWTR8Kb-33" style="edgeStyle=orthogonalEdgeStyle;rounded=0;orthogonalLoop=1;jettySize=auto;html=1;fontSize=18;fontColor=#FFFFFF;strokeWidth=2;" edge="1" parent="1" source="GSWelJKuNMoxfmWTR8Kb-18">
          <mxGeometry relative="1" as="geometry">
            <mxPoint x="590" y="360" as="targetPoint" />
          </mxGeometry>
        </mxCell>
        <mxCell id="GSWelJKuNMoxfmWTR8Kb-18" value="&lt;font style=&quot;font-size: 18px;&quot; color=&quot;#ffffff&quot;&gt;short-term scheduler&lt;/font&gt;" style="rounded=1;whiteSpace=wrap;html=1;fontSize=14;strokeWidth=2;fillColor=#fa6800;fontColor=#000000;strokeColor=#C73500;" vertex="1" parent="1">
          <mxGeometry x="259" y="325" width="180" height="70" as="geometry" />
        </mxCell>
        <mxCell id="GSWelJKuNMoxfmWTR8Kb-21" value="" style="group" vertex="1" connectable="0" parent="1">
          <mxGeometry x="600" y="305" width="110" height="110" as="geometry" />
        </mxCell>
        <mxCell id="GSWelJKuNMoxfmWTR8Kb-13" value="&lt;span style=&quot;font-size: 14px;&quot;&gt;Runing&lt;br&gt;5&lt;br&gt;&lt;/span&gt;" style="ellipse;whiteSpace=wrap;html=1;aspect=fixed;fillColor=#6a00ff;fontColor=#ffffff;strokeColor=#3700CC;" vertex="1" parent="GSWelJKuNMoxfmWTR8Kb-21">
          <mxGeometry x="30" y="30" width="50" height="50" as="geometry" />
        </mxCell>
        <mxCell id="GSWelJKuNMoxfmWTR8Kb-16" value="" style="sketch=0;pointerEvents=1;shadow=0;dashed=0;html=1;strokeColor=none;fillColor=#434445;aspect=fixed;labelPosition=center;verticalLabelPosition=bottom;verticalAlign=top;align=center;outlineConnect=0;shape=mxgraph.vvd.cpu;fontSize=14;" vertex="1" parent="GSWelJKuNMoxfmWTR8Kb-21">
          <mxGeometry width="110" height="110" as="geometry" />
        </mxCell>
        <mxCell id="GSWelJKuNMoxfmWTR8Kb-25" style="edgeStyle=orthogonalEdgeStyle;rounded=0;orthogonalLoop=1;jettySize=auto;html=1;entryX=1;entryY=0.5;entryDx=0;entryDy=0;fontSize=18;fontColor=#FFFFFF;strokeWidth=2;" edge="1" parent="1" source="GSWelJKuNMoxfmWTR8Kb-16" target="GSWelJKuNMoxfmWTR8Kb-1">
          <mxGeometry relative="1" as="geometry">
            <Array as="points">
              <mxPoint x="655" y="216" />
            </Array>
          </mxGeometry>
        </mxCell>
        <mxCell id="GSWelJKuNMoxfmWTR8Kb-29" style="edgeStyle=orthogonalEdgeStyle;rounded=0;orthogonalLoop=1;jettySize=auto;html=1;exitX=0.1;exitY=0.5;exitDx=0;exitDy=0;exitPerimeter=0;fontSize=18;fontColor=#FFFFFF;strokeWidth=2;" edge="1" parent="1" source="GSWelJKuNMoxfmWTR8Kb-28">
          <mxGeometry relative="1" as="geometry">
            <mxPoint x="350" y="320" as="targetPoint" />
          </mxGeometry>
        </mxCell>
        <mxCell id="GSWelJKuNMoxfmWTR8Kb-28" value="" style="shape=curlyBracket;whiteSpace=wrap;html=1;rounded=1;fontSize=18;fontColor=#FFFFFF;strokeWidth=2;fillColor=default;gradientColor=none;rotation=-90;" vertex="1" parent="1">
          <mxGeometry x="340" y="60" width="20" height="420" as="geometry" />
        </mxCell>
        <mxCell id="GSWelJKuNMoxfmWTR8Kb-31" value="" style="shape=curlyBracket;whiteSpace=wrap;html=1;rounded=1;fontSize=18;fontColor=#FFFFFF;strokeWidth=2;fillColor=default;gradientColor=none;rotation=90;" vertex="1" parent="1">
          <mxGeometry x="340" y="240" width="20" height="420" as="geometry" />
        </mxCell>
        <mxCell id="GSWelJKuNMoxfmWTR8Kb-34" value="&lt;font color=&quot;#000000&quot;&gt;interrupt&lt;/font&gt;" style="text;html=1;align=center;verticalAlign=middle;resizable=0;points=[];autosize=1;strokeColor=none;fillColor=none;fontSize=18;fontColor=#FFFFFF;" vertex="1" parent="1">
          <mxGeometry x="464" y="325" width="90" height="40" as="geometry" />
        </mxCell>
      </root>
    </mxGraphModel>
  </diagram>
</mxfile>
